<svg width="200" height="200" viewBox="0 0 200 200" xmlns="http://www.w3.org/2000/svg">
  <!-- Light green background -->
  <rect width="200" height="200" fill="#90EE90"/>
  
  <!-- Black L-shaped corner brackets -->
  <!-- Top-left bracket -->
  <path d="M20 20 L20 40 L40 40" stroke="black" stroke-width="4" fill="none" stroke-linecap="round"/>
  
  <!-- Top-right bracket -->
  <path d="M180 20 L180 40 L160 40" stroke="black" stroke-width="4" fill="none" stroke-linecap="round"/>
  
  <!-- Bottom-left bracket -->
  <path d="M20 180 L20 160 L40 160" stroke="black" stroke-width="4" fill="none" stroke-linecap="round"/>
  
  <!-- Bottom-right bracket -->
  <path d="M180 180 L180 160 L160 160" stroke="black" stroke-width="4" fill="none" stroke-linecap="round"/>
  
  <!-- Orange carrot (diagonal from bottom-left to top-right) -->
  <g transform="translate(100, 100) rotate(45)">
    <!-- Carrot body -->
    <ellipse cx="0" cy="0" rx="25" ry="45" fill="#FF8C00" transform="rotate(-15)"/>
    
    <!-- Carrot texture lines -->
    <line x1="-15" y1="-20" x2="-10" y2="15" stroke="#FF7F00" stroke-width="2"/>
    <line x1="-5" y1="-25" x2="0" y2="10" stroke="#FF7F00" stroke-width="2"/>
    <line x1="5" y1="-30" x2="10" y2="5" stroke="#FF7F00" stroke-width="2"/>
    
    <!-- Carrot leaves -->
    <g transform="translate(0, -35)">
      <path d="M-8 -5 Q-15 -15 -8 -20 Q-1 -15 -8 -5" fill="#228B22"/>
      <path d="M0 -5 Q-7 -15 0 -20 Q7 -15 0 -5" fill="#228B22"/>
      <path d="M8 -5 Q1 -15 8 -20 Q15 -15 8 -5" fill="#228B22"/>
    </g>
  </g>
  
  <!-- "Cooklook" text in playful handwritten style -->
  <text x="100" y="50" text-anchor="middle" font-family="Comic Sans MS, cursive" font-size="24" font-weight="bold" fill="white" stroke="white" stroke-width="2" paint-order="stroke fill">
    Cooklook
  </text>
</svg>

